<?xml version="1.0" encoding="UTF-8"?>
<svg width="14px" height="14px" viewBox="0 0 14 14" version="1.1" xmlns="http://www.w3.org/2000/svg" xmlns:xlink="http://www.w3.org/1999/xlink">
    <title>Icons/Social Sources/Alexa/Symbol</title>
    <g id="Icons/Social-Sources/Alexa/Symbol" stroke="none" stroke-width="1" fill="none" fill-rule="evenodd" fill-opacity="0.8">
        <path d="M7,1.59872116e-14 C10.8659932,1.59872116e-14 14,3.13400675 14,7 C14,10.8659932 10.8659932,14 7,14 C3.13400675,14 -5.32907052e-15,10.8659932 -5.32907052e-15,7 C-5.32907052e-15,3.13400675 3.13400675,1.59872116e-14 7,1.59872116e-14 Z M7.04603774,0.778710548 C6.06603774,0.223993567 6.10301887,0.214748284 6.10301887,1.15776715 C6.10301887,1.74946527 6.06603774,2.03606904 5.95509434,2.18399357 C5.88113208,2.29493696 5.45584906,2.55380489 5.03056604,2.7664464 C3.32943396,3.57078602 2.22,5.29040866 2.22,7.10248413 C2.22,9.22889923 3.81943396,11.2628615 5.88113208,11.7621068 C9.33886792,12.6034275 12.51,9.4600313 11.6964151,6.00229545 C11.2433962,4.10701243 9.54226415,2.19323885 7.04603774,0.778710548 Z" id="Combined-Shape" fill="#00D4F4" style="mix-blend-mode: overlay;" transform="translate(7.000000, 7.000000) scale(-1, 1) rotate(-400.000000) translate(-7.000000, -7.000000) "></path>
    </g>
</svg>